<svg width="59" height="34" viewBox="0 0 59 34" fill="none" xmlns="http://www.w3.org/2000/svg">
<path d="M29 2.12C40.9844 2.40867 43.6427 11.4291 43.5 16.12" stroke="white" stroke-width="4"/>
<line x1="0.828796" y1="2.14551" x2="29.9339" y2="2.14551" stroke="white" stroke-width="4"/>
<path d="M42.086 32.5706C42.8669 33.3644 44.1331 33.385 44.914 32.6167L57.6403 20.0962C58.4212 19.3279 58.4212 18.0616 57.6403 17.2678C56.8593 16.474 55.5932 16.4534 54.8122 17.2217L43.5 28.351L32.1878 16.8529C31.4068 16.0591 30.1407 16.0385 29.3597 16.8068C28.5788 17.5751 28.5788 18.8414 29.3597 19.6352L42.086 32.5706ZM41.5003 15.9674V23.5571L45.4997 23.6223V16.0326L41.5003 15.9674ZM41.5003 23.5571L41.5003 31.1468L45.4997 31.212L45.4997 23.6223L41.5003 23.5571Z" fill="white"/>
</svg>
